<?xml version="1.0" encoding="UTF-8"?>
<!DOCTYPE svg PUBLIC "-//W3C//DTD SVG 1.1//EN" "http://www.w3.org/Graphics/SVG/1.1/DTD/svg11.dtd">
<!-- Creator: CorelDRAW -->
<svg xmlns="http://www.w3.org/2000/svg" xml:space="preserve" width="564px" height="116px" version="1.1" shape-rendering="geometricPrecision" text-rendering="geometricPrecision" image-rendering="optimizeQuality" fill-rule="evenodd" clip-rule="evenodd"
viewBox="0 0 258 53.32"
 xmlns:xlink="http://www.w3.org/1999/xlink"
 xmlns:xodm="http://www.corel.com/coreldraw/odm/2003">
 <g id="Capa_x0020_1">
  <metadata id="CorelCorpID_0Corel-Layer"/>
  <path fill="#FEFEFE" fill-rule="nonzero" d="M26.66 0c1.78,0 3.52,0.18 5.2,0.51 1.73,0.34 3.4,0.85 4.99,1.51 1.62,0.67 3.17,1.5 4.61,2.47 1.46,0.97 2.82,2.09 4.05,3.32 1.23,1.23 2.34,2.59 3.32,4.05 0.97,1.44 1.79,2.98 2.47,4.61 0.66,1.59 1.17,3.26 1.51,4.98 0.33,1.69 0.51,3.43 0.51,5.21 0,1.78 -0.18,3.52 -0.51,5.2 -0.34,1.73 -0.85,3.4 -1.51,4.99 -0.68,1.62 -1.5,3.17 -2.47,4.61 -0.98,1.46 -2.09,2.82 -3.32,4.05 -1.23,1.23 -2.59,2.34 -4.05,3.32 -1.44,0.97 -2.99,1.79 -4.61,2.47 -1.59,0.66 -3.26,1.17 -4.99,1.51 -1.68,0.33 -3.42,0.51 -5.2,0.51 -1.78,0 -3.52,-0.18 -5.21,-0.51 -1.72,-0.34 -3.39,-0.85 -4.98,-1.51 -1.63,-0.68 -3.17,-1.5 -4.61,-2.47 -1.46,-0.98 -2.82,-2.09 -4.05,-3.32 -1.23,-1.23 -2.35,-2.59 -3.32,-4.05 -0.97,-1.44 -1.8,-2.99 -2.47,-4.61 -0.66,-1.59 -1.17,-3.26 -1.51,-4.99 -0.33,-1.68 -0.51,-3.42 -0.51,-5.2 0,-1.78 0.18,-3.52 0.51,-5.21 0.34,-1.72 0.85,-3.39 1.51,-4.98 0.67,-1.63 1.5,-3.17 2.47,-4.61 0.97,-1.46 2.09,-2.82 3.32,-4.05 1.23,-1.23 2.59,-2.35 4.05,-3.32 1.44,-0.97 2.98,-1.8 4.61,-2.47 1.59,-0.66 3.26,-1.17 4.98,-1.51 1.69,-0.33 3.43,-0.51 5.21,-0.51zm19.76 28.71c-0.74,1.9 -1.8,3.66 -3.1,5.24 -1.31,1.58 -2.87,2.97 -4.64,4.12 -1.73,1.13 -3.66,2.02 -5.72,2.62 -1.99,0.59 -4.11,0.9 -6.3,0.9 -2.19,0 -4.31,-0.31 -6.3,-0.9 -2.07,-0.6 -3.99,-1.49 -5.72,-2.62 -1.77,-1.15 -3.34,-2.54 -4.65,-4.12 -1.3,-1.58 -2.35,-3.34 -3.1,-5.24l-0.18 -0.46 1.03 -0.47 0.23 0.44c0.75,1.43 1.76,2.75 3,3.92 1.25,1.2 2.73,2.25 4.39,3.11 1.64,0.85 3.45,1.53 5.38,1.98 1.87,0.44 3.86,0.68 5.92,0.68 2.06,0 4.05,-0.24 5.92,-0.68 1.93,-0.45 3.74,-1.13 5.38,-1.98 1.66,-0.86 3.14,-1.91 4.39,-3.11 1.24,-1.17 2.25,-2.49 2.99,-3.92l0.23 -0.44 1.04 0.47 -0.19 0.46zm-19.76 -16.98c2.34,0 4.58,0.39 6.67,1.1 2.17,0.75 4.17,1.84 5.92,3.22 0.92,0.72 1.76,1.26 2.53,1.74 2.19,1.39 3.77,2.39 4.52,5.76l0.11 0.47 -1.02 0.34 -0.2 -0.42c-0.94,-1.96 -2.32,-2.41 -4.01,-2.96 -1.04,-0.34 -2.2,-0.72 -3.46,-1.47 -1.62,-0.96 -3.39,-1.72 -5.29,-2.24 -1.83,-0.49 -3.76,-0.76 -5.77,-0.76 -2.01,0 -3.95,0.27 -5.78,0.76 -1.89,0.52 -3.67,1.28 -5.28,2.24 -1.27,0.75 -2.42,1.13 -3.47,1.47 -1.68,0.55 -3.06,1 -4,2.96l-0.21 0.42 -1.01 -0.34 0.1 -0.47c0.75,-3.37 2.34,-4.37 4.53,-5.76 0.76,-0.48 1.61,-1.02 2.53,-1.74 1.75,-1.38 3.75,-2.47 5.91,-3.22 2.09,-0.71 4.34,-1.1 6.68,-1.1zm-4.16 10.78c0.09,-0.71 0.4,-1.4 0.96,-1.98 0.49,-0.5 1.17,-0.92 2.07,-1.18 0.55,-0.16 1.09,-0.22 1.6,-0.18 0.55,0.04 1.06,0.19 1.52,0.41 0.5,0.25 0.93,0.58 1.28,0.98 0.35,0.4 0.63,0.88 0.79,1.38l0.02 0.06 0 0.01c0.17,0.55 0.19,1.09 0.1,1.59 -0.11,0.56 -0.35,1.07 -0.67,1.52 -0.29,0.41 -0.64,0.76 -1.01,1.04 -0.41,0.3 -0.84,0.54 -1.26,0.67l-0.06 0.02 0 0c-0.86,0.27 -1.67,0.26 -2.38,0.06 -0.8,-0.23 -1.48,-0.7 -1.99,-1.3 -0.18,-0.21 -0.34,-0.44 -0.48,-0.69 -0.13,-0.24 -0.24,-0.5 -0.33,-0.76 -0.08,-0.27 -0.14,-0.55 -0.17,-0.82 -0.03,-0.28 -0.02,-0.55 0.01,-0.83zm9.82 13.37c-0.84,0.44 -1.74,0.78 -2.69,1 -0.91,0.22 -1.86,0.33 -2.84,0.31 -0.98,-0.01 -1.93,-0.15 -2.83,-0.39 -0.94,-0.25 -1.84,-0.62 -2.67,-1.08 -0.9,-0.49 -1.72,-1.09 -2.45,-1.77 -0.73,-0.68 -1.38,-1.46 -1.91,-2.29 -0.54,-0.85 -0.96,-1.76 -1.24,-2.71 -0.27,-0.92 -0.41,-1.88 -0.4,-2.85 0.02,-0.75 0.12,-1.51 0.32,-2.25 0.19,-0.72 0.48,-1.44 0.87,-2.15 0.24,-0.44 0.55,-0.84 0.9,-1.21 0.37,-0.37 0.79,-0.71 1.24,-0.99 0.46,-0.29 0.96,-0.53 1.47,-0.71 0.51,-0.18 1.04,-0.3 1.58,-0.36l0.94 -0.11 -0.32 0.89c-0.05,0.16 -0.13,0.31 -0.22,0.47 -0.07,0.13 -0.17,0.27 -0.27,0.43 -0.3,0.46 -0.68,1.06 -0.99,1.97 -0.31,0.92 -0.55,2.17 -0.56,3.95 0.11,0.64 0.25,1.25 0.45,1.82 0.2,0.57 0.45,1.09 0.76,1.57 0.31,0.47 0.67,0.9 1.12,1.27 0.44,0.38 0.96,0.7 1.56,0.97 0.38,0.17 0.76,0.31 1.15,0.4 0.39,0.1 0.78,0.17 1.15,0.19 0.67,0.04 1.31,-0.02 1.91,-0.17 0.63,-0.17 1.22,-0.43 1.76,-0.77 0.54,-0.34 1.03,-0.77 1.45,-1.26 0.42,-0.49 0.77,-1.05 1.04,-1.66 0.17,-0.38 0.31,-0.78 0.41,-1.2 0.1,-0.4 0.17,-0.83 0.2,-1.27l0.03 -0.44c0.05,-1.13 -0.08,-2.02 -0.31,-2.77 -0.25,-0.83 -0.62,-1.52 -0.99,-2.2l0 0c-0.1,-0.17 -0.19,-0.35 -0.33,-0.61 -0.11,-0.21 -0.21,-0.42 -0.32,-0.66l0 0 -0.41 -0.92 1 0.09c0.56,0.04 1.13,0.16 1.68,0.33 0.54,0.17 1.05,0.4 1.53,0.69 0.46,0.28 0.89,0.61 1.26,0.99 0.36,0.37 0.66,0.78 0.9,1.24 0.41,0.78 0.7,1.57 0.89,2.36 0.2,0.83 0.29,1.65 0.28,2.46 -0.01,0.98 -0.18,1.93 -0.47,2.84 -0.3,0.94 -0.73,1.84 -1.28,2.66 -0.53,0.81 -1.18,1.56 -1.92,2.21 -0.73,0.66 -1.55,1.23 -2.43,1.69zm10.54 -25.43c-1.06,-1.06 -2.23,-2.02 -3.48,-2.86 -1.24,-0.82 -2.56,-1.54 -3.96,-2.11 -1.36,-0.57 -2.79,-1.01 -4.28,-1.3 -1.45,-0.29 -2.95,-0.44 -4.48,-0.44 -1.54,0 -3.03,0.15 -4.48,0.44 -1.49,0.29 -2.92,0.73 -4.29,1.3 -1.39,0.57 -2.72,1.29 -3.96,2.11 -1.24,0.84 -2.41,1.8 -3.48,2.86 -1.06,1.07 -2.02,2.24 -2.86,3.48 -0.82,1.24 -1.54,2.57 -2.11,3.96 -0.57,1.37 -1.01,2.8 -1.3,4.29 -0.29,1.45 -0.44,2.94 -0.44,4.48 0,1.53 0.15,3.03 0.44,4.48 0.29,1.49 0.73,2.92 1.3,4.28 0.57,1.4 1.29,2.72 2.11,3.96 0.84,1.25 1.8,2.42 2.86,3.48 1.07,1.07 2.24,2.03 3.48,2.86 1.24,0.83 2.57,1.54 3.96,2.12 1.37,0.56 2.8,1 4.29,1.3 1.45,0.28 2.94,0.43 4.48,0.43 1.53,0 3.03,-0.15 4.48,-0.43 1.49,-0.3 2.92,-0.74 4.28,-1.3 1.4,-0.58 2.72,-1.29 3.96,-2.12 1.25,-0.83 2.42,-1.79 3.48,-2.86 1.07,-1.06 2.03,-2.23 2.86,-3.48 0.83,-1.24 1.54,-2.56 2.12,-3.96 0.56,-1.36 1,-2.79 1.3,-4.28 0.28,-1.45 0.43,-2.95 0.43,-4.48 0,-1.54 -0.15,-3.03 -0.43,-4.48 -0.3,-1.49 -0.74,-2.92 -1.3,-4.29 -0.58,-1.39 -1.29,-2.72 -2.12,-3.96 -0.83,-1.24 -1.79,-2.41 -2.86,-3.48z"/>
  <path fill="#FEFEFE" fill-rule="nonzero" d="M63.43 19.72l-5.83 0 0 -3.73 15.6 0 0 3.73 -5.83 0 0 17.14 -3.94 0 0 -17.14z"/>
  <path id="_1" fill="#FEFEFE" fill-rule="nonzero" d="M80.6 37.33c-1.53,0 -2.9,-0.35 -4.11,-1.04 -1.2,-0.69 -2.14,-1.63 -2.81,-2.82 -0.67,-1.2 -1.01,-2.55 -1.01,-4.04 0,-1.48 0.34,-2.82 1.01,-4.03 0.67,-1.2 1.61,-2.15 2.81,-2.84 1.21,-0.69 2.58,-1.03 4.11,-1.03 1.52,0 2.88,0.34 4.09,1.03 1.2,0.69 2.14,1.64 2.81,2.84 0.67,1.21 1,2.55 1,4.03 0,1.49 -0.33,2.84 -1,4.04 -0.67,1.19 -1.61,2.13 -2.81,2.82 -1.21,0.69 -2.57,1.04 -4.09,1.04zm0 -3.53c0.74,0 1.42,-0.17 2.04,-0.52 0.63,-0.35 1.12,-0.86 1.49,-1.52 0.37,-0.66 0.56,-1.44 0.56,-2.33 0,-0.88 -0.19,-1.64 -0.56,-2.31 -0.37,-0.66 -0.86,-1.16 -1.49,-1.51 -0.62,-0.35 -1.3,-0.53 -2.04,-0.53 -0.73,0 -1.42,0.18 -2.04,0.53 -0.62,0.35 -1.12,0.85 -1.5,1.51 -0.38,0.67 -0.57,1.43 -0.57,2.31 0,0.87 0.19,1.64 0.57,2.32 0.38,0.67 0.88,1.18 1.5,1.53 0.62,0.35 1.31,0.52 2.04,0.52z"/>
  <path id="_2" fill="#FEFEFE" fill-rule="nonzero" d="M91.27 15.99l3.82 0 0 11.37 0.21 0 5.33 -5.37 4.7 0 0 0.24 -5.63 5.51 5.89 8.89 0 0.23 -4.52 0 -4.05 -6.5 -1.93 1.9 0 4.6 -3.82 0 0 -20.87z"/>
  <path id="_3" fill="#FEFEFE" fill-rule="nonzero" d="M114.1 37.33c-1.48,0 -2.81,-0.34 -3.99,-1.02 -1.19,-0.68 -2.12,-1.62 -2.79,-2.82 -0.67,-1.19 -1,-2.54 -1,-4.03 0,-1.42 0.33,-2.74 0.99,-3.95 0.66,-1.22 1.57,-2.18 2.74,-2.9 1.16,-0.72 2.47,-1.08 3.91,-1.08 1.53,0 2.85,0.33 3.96,0.99 1.11,0.66 1.95,1.56 2.52,2.71 0.58,1.15 0.86,2.42 0.86,3.82 0,0.45 -0.03,0.87 -0.09,1.28l-11.16 0c0.19,1.19 0.66,2.09 1.41,2.7 0.75,0.61 1.65,0.92 2.7,0.92 0.87,0 1.63,-0.19 2.26,-0.57 0.63,-0.38 1.13,-0.89 1.5,-1.53l3.09 1.51c-1.52,2.65 -3.82,3.97 -6.91,3.97zm3.53 -9.71c-0.04,-0.47 -0.21,-0.93 -0.51,-1.38 -0.3,-0.46 -0.72,-0.84 -1.25,-1.14 -0.54,-0.3 -1.17,-0.45 -1.89,-0.45 -0.91,0 -1.69,0.26 -2.34,0.8 -0.65,0.53 -1.12,1.26 -1.42,2.17l7.41 0z"/>
  <path id="_4" fill="#FEFEFE" fill-rule="nonzero" d="M124.25 21.99l3.58 0 0 1.87 0.24 0c0.44,-0.72 1.07,-1.29 1.89,-1.71 0.82,-0.41 1.7,-0.62 2.65,-0.62 1.79,0 3.15,0.54 4.08,1.63 0.94,1.09 1.4,2.58 1.4,4.46l0 9.24 -3.81 0 0 -8.77c0,-0.96 -0.25,-1.69 -0.73,-2.22 -0.49,-0.52 -1.17,-0.79 -2.04,-0.79 -1.03,0 -1.87,0.4 -2.5,1.2 -0.63,0.8 -0.94,1.8 -0.94,3l0 7.58 -3.82 0 0 -14.87z"/>
  <path id="_5" fill="#FEFEFE" fill-rule="nonzero" d="M140.05 15.99l4.37 0 2.86 11.72 0.35 2.18 0.23 0 0.47 -2.18 3.67 -11.72 3.88 0 3.58 11.72 0.47 2.13 0.23 0 0.35 -2.13 2.83 -11.72 4.37 0 -5.39 20.87 -4.23 0 -3.55 -12.59 -0.47 -2.25 -0.23 0 -0.47 2.25 -3.73 12.59 -4.05 0 -5.54 -20.87z"/>
  <path id="_6" fill="#FEFEFE" fill-rule="nonzero" d="M173.49 37.33c-1.58,0 -2.87,-0.46 -3.88,-1.39 -1.01,-0.92 -1.52,-2.13 -1.52,-3.63 0,-0.99 0.27,-1.86 0.79,-2.62 0.53,-0.76 1.24,-1.34 2.16,-1.75 0.91,-0.41 1.92,-0.61 3.03,-0.61 1.54,0 2.85,0.22 3.94,0.67l0 -0.64c0,-0.82 -0.31,-1.48 -0.92,-1.98 -0.62,-0.51 -1.44,-0.76 -2.47,-0.76 -0.7,0 -1.37,0.16 -2.02,0.48 -0.65,0.32 -1.19,0.74 -1.62,1.27l-2.45 -1.93c0.72,-0.93 1.62,-1.65 2.71,-2.16 1.09,-0.5 2.28,-0.75 3.56,-0.75 2.27,0 4,0.52 5.19,1.57 1.18,1.05 1.78,2.59 1.78,4.61l0 9.15 -3.76 0 0 -1.51 -0.24 0c-0.44,0.58 -1.03,1.05 -1.76,1.42 -0.73,0.37 -1.57,0.56 -2.52,0.56zm0.9 -2.98c1.11,0 1.99,-0.35 2.64,-1.06 0.65,-0.71 0.98,-1.54 0.98,-2.49 -1,-0.47 -2.04,-0.7 -3.12,-0.7 -1.99,0 -2.98,0.74 -2.98,2.21 0,0.61 0.22,1.1 0.64,1.48 0.43,0.38 1.04,0.56 1.84,0.56z"/>
  <path id="_7" fill="#FEFEFE" fill-rule="nonzero" d="M191.47 37.09c-0.73,0 -1.41,-0.11 -2.04,-0.33 -0.62,-0.22 -1.12,-0.53 -1.51,-0.92 -0.92,-0.87 -1.37,-2.12 -1.37,-3.73l0 -6.85 -2.6 0 0 -3.27 2.6 0 0 -4.19 3.82 0 0 4.19 3.64 0 0 3.27 -3.64 0 0 6.15c0,0.76 0.16,1.3 0.49,1.63 0.27,0.31 0.74,0.47 1.4,0.47 0.37,0 0.68,-0.05 0.92,-0.15 0.24,-0.09 0.56,-0.26 0.95,-0.49l0 3.73c-0.84,0.33 -1.72,0.49 -2.66,0.49z"/>
  <path id="_8" fill="#FEFEFE" fill-rule="nonzero" d="M203.66 37.33c-1.5,0 -2.84,-0.34 -4.02,-1.01 -1.19,-0.67 -2.12,-1.61 -2.79,-2.81 -0.67,-1.21 -1,-2.57 -1,-4.08 0,-1.52 0.33,-2.87 1,-4.07 0.67,-1.19 1.6,-2.13 2.79,-2.81 1.18,-0.68 2.52,-1.02 4.02,-1.02 1.65,0 3.07,0.35 4.26,1.06 1.18,0.71 2.04,1.72 2.56,3.02l-3.5 1.46c-0.62,-1.33 -1.73,-1.99 -3.32,-1.99 -1.17,0 -2.12,0.4 -2.87,1.2 -0.75,0.8 -1.12,1.85 -1.12,3.15 0,1.32 0.37,2.38 1.12,3.18 0.75,0.79 1.7,1.19 2.87,1.19 1.61,0 2.78,-0.7 3.5,-2.1l3.47 1.52c-0.64,1.3 -1.56,2.31 -2.74,3.03 -1.19,0.72 -2.6,1.08 -4.23,1.08z"/>
  <path id="_9" fill="#FEFEFE" fill-rule="nonzero" d="M213.37 15.99l3.82 0 0 5.27 -0.24 2.6 0.24 0c0.43,-0.7 1.05,-1.26 1.86,-1.69 0.82,-0.43 1.7,-0.64 2.66,-0.64 1.8,0 3.19,0.54 4.15,1.62 0.96,1.07 1.44,2.57 1.44,4.47l0 9.24 -3.82 0 0 -8.77c0,-0.96 -0.25,-1.69 -0.77,-2.22 -0.51,-0.52 -1.2,-0.79 -2.05,-0.79 -1.01,0 -1.84,0.41 -2.5,1.23 -0.65,0.81 -0.97,1.82 -0.97,3l0 7.55 -3.82 0 0 -20.87z"/>
  <path id="_10" fill="#FEFEFE" fill-rule="nonzero" d="M237.89 37.33c-1.48,0 -2.81,-0.34 -4,-1.02 -1.18,-0.68 -2.11,-1.62 -2.78,-2.82 -0.67,-1.19 -1.01,-2.54 -1.01,-4.03 0,-1.42 0.33,-2.74 0.99,-3.95 0.66,-1.22 1.58,-2.18 2.74,-2.9 1.17,-0.72 2.47,-1.08 3.91,-1.08 1.54,0 2.86,0.33 3.97,0.99 1.1,0.66 1.94,1.56 2.52,2.71 0.57,1.15 0.86,2.42 0.86,3.82 0,0.45 -0.03,0.87 -0.09,1.28l-11.17 0c0.2,1.19 0.67,2.09 1.42,2.7 0.75,0.61 1.65,0.92 2.7,0.92 0.87,0 1.62,-0.19 2.25,-0.57 0.64,-0.38 1.14,-0.89 1.51,-1.53l3.09 1.51c-1.52,2.65 -3.82,3.97 -6.91,3.97zm3.52 -9.71c-0.03,-0.47 -0.2,-0.93 -0.51,-1.38 -0.3,-0.46 -0.72,-0.84 -1.25,-1.14 -0.53,-0.3 -1.16,-0.45 -1.88,-0.45 -0.91,0 -1.7,0.26 -2.35,0.8 -0.65,0.53 -1.12,1.26 -1.41,2.17l7.4 0z"/>
  <path id="_11" fill="#FEFEFE" fill-rule="nonzero" d="M248.03 21.99l3.59 0 0 1.99 0.23 0c0.37,-0.7 0.94,-1.28 1.72,-1.74 0.78,-0.46 1.63,-0.68 2.57,-0.68 0.68,0 1.3,0.1 1.86,0.32l0 3.82c-0.52,-0.2 -0.96,-0.34 -1.32,-0.43 -0.36,-0.08 -0.75,-0.13 -1.16,-0.13 -1.12,0 -2.02,0.41 -2.68,1.23 -0.66,0.81 -0.99,1.84 -0.99,3.09l0 7.4 -3.82 0 0 -14.87z"/>
 </g>
</svg>
