<?xml version="1.0" encoding="UTF-8"?>
<!DOCTYPE svg PUBLIC "-//W3C//DTD SVG 1.1//EN" "http://www.w3.org/Graphics/SVG/1.1/DTD/svg11.dtd">
<!-- Creator: CorelDRAW -->
<svg xmlns="http://www.w3.org/2000/svg" xml:space="preserve" width="47.7154mm" height="9.8604mm" version="1.1" shape-rendering="geometricPrecision" text-rendering="geometricPrecision" image-rendering="optimizeQuality" fill-rule="evenodd" clip-rule="evenodd"
viewBox="0 0 2182.74 451.06"
 xmlns:xlink="http://www.w3.org/1999/xlink"
 xmlns:xodm="http://www.corel.com/coreldraw/odm/2003">
 <g id="Capa_x0020_1">
  <metadata id="CorelCorpID_0Corel-Layer"/>
  <path fill="black" fill-rule="nonzero" d="M225.53 0c15.05,0 29.78,1.48 44.03,4.3 14.6,2.89 28.71,7.2 42.2,12.79 13.74,5.69 26.79,12.7 39,20.86 12.36,8.27 23.84,17.69 34.25,28.11 10.41,10.42 19.84,21.89 28.11,34.25 8.16,12.2 15.17,25.26 20.86,39 5.59,13.49 9.89,27.6 12.79,42.19 2.82,14.25 4.3,28.98 4.3,44.03 0,15.05 -1.48,29.78 -4.3,44.03 -2.89,14.6 -7.2,28.71 -12.79,42.2 -5.69,13.74 -12.7,26.79 -20.86,39 -8.27,12.36 -17.69,23.84 -28.11,34.25 -10.42,10.41 -21.89,19.84 -34.25,28.11 -12.2,8.16 -25.26,15.17 -38.99,20.86 -13.49,5.59 -27.6,9.89 -42.2,12.79 -14.25,2.82 -28.98,4.3 -44.03,4.3 -15.05,0 -29.78,-1.48 -44.03,-4.3 -14.59,-2.89 -28.71,-7.2 -42.2,-12.79 -13.74,-5.69 -26.79,-12.7 -38.99,-20.86 -12.36,-8.27 -23.84,-17.69 -34.25,-28.11 -10.41,-10.42 -19.84,-21.89 -28.11,-34.25 -8.16,-12.2 -15.17,-25.26 -20.86,-39 -5.58,-13.48 -9.89,-27.6 -12.79,-42.2 -2.82,-14.25 -4.3,-28.97 -4.3,-44.03 0,-15.05 1.48,-29.78 4.3,-44.03 2.89,-14.59 7.2,-28.71 12.79,-42.19 5.69,-13.74 12.7,-26.79 20.86,-39 8.27,-12.36 17.69,-23.84 28.11,-34.25 10.42,-10.41 21.89,-19.84 34.25,-28.11 12.2,-8.16 25.26,-15.17 39,-20.86 13.49,-5.58 27.6,-9.89 42.19,-12.79 14.25,-2.82 28.98,-4.3 44.03,-4.3zm167.2 242.92c-6.31,16.07 -15.21,30.97 -26.2,44.26 -11.09,13.4 -24.35,25.19 -39.29,34.91 -14.67,9.54 -30.95,17.08 -48.4,22.19 -16.87,4.93 -34.78,7.59 -53.31,7.59 -18.53,0 -36.44,-2.66 -53.31,-7.59 -17.45,-5.11 -33.74,-12.64 -48.4,-22.19 -14.94,-9.72 -28.2,-21.51 -39.29,-34.91 -11,-13.29 -19.89,-28.19 -26.2,-44.26l-1.56 -3.96 8.72 -3.97 1.97 3.77c6.27,12.04 14.85,23.2 25.32,33.18 10.59,10.09 23.11,18.96 37.16,26.28 13.86,7.22 29.16,12.91 45.5,16.76 15.82,3.73 32.63,5.73 50.08,5.73 17.44,0 34.26,-2 50.08,-5.73 16.34,-3.85 31.65,-9.54 45.5,-16.76 14.05,-7.32 26.58,-16.19 37.16,-26.28 10.47,-9.98 19.05,-21.14 25.32,-33.18l1.97 -3.77 8.72 3.97 -1.56 3.96zm-167.2 -143.73c19.78,0 38.79,3.3 56.46,9.37 18.33,6.29 35.22,15.57 50.07,27.24 7.76,6.09 14.91,10.62 21.39,14.72 18.55,11.74 31.93,20.21 38.28,48.74l0.87 3.92 -8.57 2.95 -1.74 -3.61c-7.98,-16.59 -19.62,-20.37 -33.89,-25.01 -8.84,-2.88 -18.6,-6.05 -29.32,-12.45 -13.64,-8.14 -28.66,-14.56 -44.69,-18.91 -15.48,-4.2 -31.88,-6.45 -48.86,-6.45 -16.99,0 -33.39,2.26 -48.86,6.45 -16.03,4.35 -31.06,10.77 -44.69,18.91 -10.72,6.4 -20.48,9.57 -29.32,12.45 -14.27,4.64 -25.91,8.43 -33.89,25.01l-1.74 3.61 -8.57 -2.95 0.87 -3.92c6.36,-28.53 19.73,-36.99 38.28,-48.73 6.47,-4.1 13.62,-8.62 21.39,-14.72 14.84,-11.66 31.74,-20.94 50.06,-27.24 17.68,-6.07 36.68,-9.37 56.47,-9.37zm-35.17 91.27c0.76,-6.04 3.35,-11.89 8.12,-16.78 4.13,-4.25 9.88,-7.74 17.47,-9.97 4.73,-1.39 9.29,-1.84 13.56,-1.53 4.67,0.34 9.01,1.58 12.9,3.5 4.19,2.06 7.82,4.9 10.76,8.24 3.03,3.44 5.33,7.43 6.73,11.66l0.18 0.55 0 0.04c1.45,4.68 1.59,9.24 0.79,13.52 -0.88,4.72 -2.91,9.06 -5.63,12.85 -2.43,3.4 -5.41,6.37 -8.58,8.77 -3.41,2.58 -7.09,4.53 -10.6,5.7l-0.54 0.17 -0.03 0c-7.25,2.23 -14.06,2.16 -20.1,0.45 -6.77,-1.92 -12.54,-5.88 -16.85,-10.96 -1.52,-1.8 -2.87,-3.76 -4.02,-5.82 -1.14,-2.05 -2.08,-4.23 -2.8,-6.48 -0.73,-2.27 -1.22,-4.6 -1.45,-6.93 -0.22,-2.31 -0.2,-4.65 0.09,-6.98zm83.09 113.06c-7.14,3.71 -14.78,6.6 -22.79,8.5 -7.68,1.83 -15.73,2.75 -24.02,2.62 -8.27,-0.13 -16.29,-1.29 -23.93,-3.33 -7.96,-2.13 -15.56,-5.23 -22.63,-9.12 -7.54,-4.14 -14.49,-9.19 -20.68,-14.96 -6.22,-5.8 -11.67,-12.32 -16.16,-19.39 -4.57,-7.18 -8.14,-14.89 -10.51,-22.92 -2.3,-7.79 -3.47,-15.9 -3.34,-24.12 0.1,-6.36 0.96,-12.74 2.67,-19.06 1.65,-6.1 4.07,-12.16 7.35,-18.12 2.05,-3.72 4.64,-7.15 7.66,-10.25 3.09,-3.17 6.62,-5.99 10.44,-8.39 3.91,-2.45 8.11,-4.47 12.44,-6 4.35,-1.53 8.86,-2.58 13.37,-3.09l7.95 -0.89 -2.65 7.55c-0.47,1.34 -1.1,2.61 -1.86,3.92 -0.65,1.12 -1.45,2.36 -2.32,3.71 -2.51,3.87 -5.77,8.91 -8.37,16.6 -2.63,7.79 -4.65,18.38 -4.71,33.41 0.88,5.47 2.12,10.63 3.78,15.43 1.67,4.82 3.79,9.27 6.42,13.31 2.59,3.98 5.71,7.57 9.44,10.73 3.76,3.19 8.13,5.94 13.22,8.22 3.22,1.44 6.47,2.57 9.73,3.39 3.32,0.85 6.59,1.37 9.78,1.58 5.59,0.38 11.02,-0.16 16.13,-1.47 5.31,-1.37 10.33,-3.58 14.92,-6.51 4.52,-2.89 8.64,-6.49 12.21,-10.66 3.55,-4.14 6.53,-8.85 8.83,-13.98 1.44,-3.21 2.61,-6.61 3.49,-10.16 0.85,-3.45 1.41,-7.04 1.66,-10.75l0.26 -3.74c0.4,-9.59 -0.72,-17.07 -2.62,-23.4 -2.11,-7.04 -5.27,-12.87 -8.39,-18.62l-0 0c-0.81,-1.5 -1.63,-3.01 -2.78,-5.21 -0.9,-1.75 -1.8,-3.57 -2.68,-5.53l-0.01 0 -3.51 -7.8 8.52 0.72c4.75,0.4 9.52,1.36 14.15,2.83 4.56,1.45 8.93,3.39 12.94,5.8 3.94,2.36 7.55,5.16 10.68,8.39 3.05,3.13 5.64,6.63 7.64,10.48 3.43,6.6 5.92,13.31 7.56,20.02 1.7,6.98 2.45,13.94 2.34,20.77 -0.13,8.27 -1.51,16.35 -3.96,24.06 -2.53,7.97 -6.2,15.53 -10.81,22.49 -4.54,6.84 -10.01,13.15 -16.25,18.73 -6.21,5.56 -13.12,10.36 -20.57,14.24zm89.16 -215.08c-9.02,-9.02 -18.88,-17.13 -29.44,-24.19 -10.49,-7.01 -21.7,-13.03 -33.49,-17.92 -11.54,-4.78 -23.67,-8.48 -36.26,-10.97 -12.24,-2.42 -24.91,-3.7 -37.89,-3.7 -12.98,0 -25.65,1.27 -37.89,3.7 -12.59,2.49 -24.73,6.19 -36.26,10.97 -11.79,4.89 -23,10.91 -33.49,17.92 -10.56,7.07 -20.43,15.18 -29.44,24.19 -9.02,9.02 -17.13,18.88 -24.19,29.44 -7.01,10.49 -13.03,21.7 -17.92,33.49 -4.78,11.54 -8.48,23.67 -10.97,36.26 -2.42,12.24 -3.7,24.91 -3.7,37.89 0,12.98 1.27,25.65 3.7,37.89 2.49,12.59 6.19,24.73 10.97,36.26 4.89,11.79 10.91,23 17.92,33.49 7.07,10.56 15.18,20.43 24.19,29.44 9.02,9.02 18.88,17.13 29.44,24.19 10.49,7.01 21.7,13.03 33.49,17.92 11.54,4.78 23.67,8.48 36.27,10.97 12.24,2.42 24.91,3.69 37.89,3.69 12.98,0 25.65,-1.27 37.89,-3.69 12.59,-2.49 24.73,-6.19 36.27,-10.97 11.79,-4.89 23,-10.91 33.49,-17.92 10.56,-7.07 20.42,-15.18 29.44,-24.19 9.02,-9.02 17.13,-18.88 24.19,-29.44 7.02,-10.49 13.03,-21.7 17.92,-33.49 4.78,-11.54 8.48,-23.67 10.97,-36.26 2.42,-12.24 3.69,-24.91 3.69,-37.89 0,-12.98 -1.27,-25.65 -3.69,-37.89 -2.49,-12.59 -6.2,-24.73 -10.97,-36.26 -4.89,-11.79 -10.91,-23 -17.92,-33.49 -7.06,-10.56 -15.18,-20.43 -24.19,-29.44z"/>
  <path fill="black" fill-rule="nonzero" d="M536.65 166.83l-49.33 0 0 -31.57 131.95 0 0 31.57 -49.33 0 0 145.03 -33.3 0 0 -145.03z"/>
  <path id="_1" fill="black" fill-rule="nonzero" d="M681.92 315.81c-12.99,0 -24.58,-2.92 -34.78,-8.76 -10.19,-5.84 -18.13,-13.82 -23.8,-23.92 -5.67,-10.11 -8.51,-21.5 -8.51,-34.16 0,-12.5 2.84,-23.84 8.51,-34.03 5.67,-10.2 13.61,-18.21 23.8,-24.05 10.2,-5.84 21.79,-8.76 34.78,-8.76 12.83,0 24.34,2.92 34.53,8.76 10.19,5.84 18.13,13.85 23.8,24.05 5.67,10.19 8.51,21.54 8.51,34.03 0,12.66 -2.84,24.05 -8.51,34.16 -5.67,10.11 -13.61,18.09 -23.8,23.92 -10.2,5.84 -21.71,8.76 -34.53,8.76zm0 -29.84c6.25,0 12,-1.48 17.27,-4.44 5.26,-2.96 9.45,-7.23 12.58,-12.82 3.12,-5.59 4.69,-12.17 4.69,-19.73 0,-7.4 -1.56,-13.89 -4.69,-19.48 -3.12,-5.59 -7.31,-9.87 -12.58,-12.83 -5.27,-2.96 -11.02,-4.44 -17.27,-4.44 -6.24,0 -12,1.48 -17.26,4.44 -5.26,2.96 -9.5,7.24 -12.7,12.83 -3.21,5.59 -4.81,12.09 -4.81,19.48 0,7.4 1.61,13.93 4.81,19.61 3.2,5.67 7.44,9.99 12.7,12.95 5.26,2.96 11.02,4.44 17.26,4.44z"/>
  <path id="_2" fill="black" fill-rule="nonzero" d="M772.2 135.26l32.31 0 0 96.19 1.72 0 45.14 -45.38 39.71 0 0 1.98 -47.6 46.61 49.82 75.23 0 1.97 -38.23 0 -34.29 -55 -16.28 16.03 0 38.97 -32.31 0 0 -176.6z"/>
  <path id="_3" fill="black" fill-rule="nonzero" d="M965.32 315.81c-12.5,0 -23.76,-2.88 -33.79,-8.63 -10.03,-5.75 -17.88,-13.69 -23.55,-23.8 -5.67,-10.11 -8.51,-21.5 -8.51,-34.16 0,-12 2.8,-23.14 8.39,-33.42 5.59,-10.27 13.32,-18.45 23.18,-24.54 9.87,-6.08 20.88,-9.13 33.05,-9.13 12.99,0 24.17,2.8 33.54,8.39 9.37,5.59 16.48,13.23 21.34,22.94 4.85,9.7 7.27,20.47 7.27,32.31 0,3.78 -0.25,7.4 -0.74,10.86l-94.47 0c1.65,10.03 5.63,17.63 11.96,22.81 6.33,5.18 13.94,7.77 22.82,7.77 7.4,0 13.77,-1.6 19.11,-4.81 5.34,-3.21 9.58,-7.53 12.7,-12.95l26.14 12.83c-12.83,22.36 -32.31,33.54 -58.45,33.54zm29.84 -82.14c-0.33,-3.94 -1.77,-7.85 -4.32,-11.72 -2.55,-3.86 -6.08,-7.07 -10.6,-9.62 -4.52,-2.55 -9.83,-3.82 -15.91,-3.82 -7.73,0 -14.35,2.26 -19.85,6.78 -5.51,4.52 -9.5,10.65 -11.96,18.38l62.65 0z"/>
  <path id="_4" fill="black" fill-rule="nonzero" d="M1051.15 186.07l30.33 0 0 15.79 1.98 0c3.78,-6.08 9.13,-10.89 16.03,-14.43 6.91,-3.54 14.39,-5.3 22.45,-5.3 15.13,0 26.64,4.6 34.53,13.81 7.9,9.21 11.84,21.79 11.84,37.74l0 78.19 -32.31 0 0 -74.24c0,-8.06 -2.05,-14.3 -6.17,-18.75 -4.11,-4.44 -9.86,-6.66 -17.26,-6.66 -8.71,0 -15.75,3.37 -21.09,10.11 -5.34,6.74 -8.01,15.21 -8.01,25.41l0 64.13 -32.31 0 0 -125.79z"/>
  <path id="_5" fill="black" fill-rule="nonzero" d="M1184.83 135.26l36.99 0 24.17 99.15 2.96 18.5 1.97 0 3.95 -18.5 31.08 -99.15 32.8 0 30.33 99.15 3.95 18.01 1.97 0 2.96 -18.01 23.92 -99.15 37 0 -45.63 176.6 -35.76 0 -30.09 -106.55 -3.94 -18.99 -1.98 0 -3.94 18.99 -31.57 106.55 -34.28 0 -46.86 -176.6z"/>
  <path id="_6" fill="black" fill-rule="nonzero" d="M1467.73 315.81c-13.32,0 -24.25,-3.91 -32.8,-11.72 -8.55,-7.81 -12.83,-18.05 -12.83,-30.71 0,-8.39 2.22,-15.79 6.66,-22.2 4.44,-6.41 10.52,-11.34 18.25,-14.8 7.73,-3.45 16.28,-5.18 25.65,-5.18 12.99,0 24.09,1.89 33.3,5.67l0 -5.43c0,-6.91 -2.59,-12.5 -7.77,-16.77 -5.18,-4.28 -12.12,-6.41 -20.84,-6.41 -5.92,0 -11.64,1.35 -17.15,4.07 -5.51,2.72 -10.07,6.29 -13.69,10.73l-20.72 -16.28c6.08,-7.89 13.73,-13.98 22.94,-18.25 9.21,-4.27 19.24,-6.41 30.09,-6.41 19.24,0 33.87,4.44 43.9,13.32 10.03,8.88 15.05,21.87 15.05,38.97l0 77.45 -31.82 0 0 -12.83 -1.97 0c-3.78,4.94 -8.76,8.96 -14.92,12.09 -6.17,3.12 -13.28,4.69 -21.34,4.69zm7.64 -25.16c9.37,0 16.82,-3 22.32,-9 5.51,-6 8.26,-13.03 8.26,-21.09 -8.39,-3.94 -17.18,-5.92 -26.39,-5.92 -16.77,0 -25.16,6.25 -25.16,18.75 0,5.1 1.81,9.25 5.43,12.46 3.62,3.21 8.8,4.81 15.54,4.81z"/>
  <path id="_7" fill="black" fill-rule="nonzero" d="M1619.91 313.83c-6.25,0 -12,-0.94 -17.26,-2.84 -5.26,-1.89 -9.54,-4.48 -12.83,-7.77 -7.73,-7.4 -11.59,-17.92 -11.59,-31.57l0 -57.96 -21.95 0 0 -27.63 21.95 0 0 -35.52 32.31 0 0 35.52 30.83 0 0 27.63 -30.83 0 0 52.04c0,6.41 1.4,11.02 4.19,13.81 2.3,2.63 6.25,3.95 11.84,3.95 3.12,0 5.71,-0.41 7.77,-1.24 2.06,-0.82 4.73,-2.22 8.02,-4.19l0 31.57c-7.07,2.8 -14.55,4.19 -22.45,4.19z"/>
  <path id="_8" fill="black" fill-rule="nonzero" d="M1723.01 315.81c-12.66,0 -24.01,-2.84 -34.04,-8.51 -10.03,-5.68 -17.88,-13.61 -23.55,-23.8 -5.67,-10.2 -8.51,-21.71 -8.51,-34.53 0,-12.83 2.84,-24.3 8.51,-34.4 5.67,-10.11 13.53,-18.05 23.55,-23.8 10.03,-5.75 21.38,-8.63 34.04,-8.63 13.98,0 25.98,3 36.01,9 10.03,6 17.26,14.51 21.7,25.53l-29.6 12.33c-5.26,-11.18 -14.63,-16.77 -28.11,-16.77 -9.87,0 -17.96,3.37 -24.3,10.11 -6.33,6.74 -9.5,15.62 -9.5,26.64 0,11.18 3.17,20.14 9.5,26.88 6.33,6.74 14.43,10.11 24.3,10.11 13.65,0 23.51,-5.92 29.6,-17.76l29.35 12.82c-5.43,11.02 -13.16,19.57 -23.18,25.65 -10.03,6.08 -21.95,9.13 -35.76,9.13z"/>
  <path id="_9" fill="black" fill-rule="nonzero" d="M1805.14 135.26l32.31 0 0 44.64 -1.98 21.95 1.98 0c3.62,-5.92 8.88,-10.69 15.79,-14.3 6.9,-3.62 14.39,-5.43 22.44,-5.43 15.29,0 27.01,4.56 35.15,13.69 8.14,9.13 12.21,21.75 12.21,37.86l0 78.19 -32.31 0 0 -74.24c0,-8.06 -2.18,-14.3 -6.54,-18.75 -4.35,-4.44 -10.15,-6.66 -17.39,-6.66 -8.55,0 -15.58,3.45 -21.09,10.36 -5.51,6.91 -8.26,15.37 -8.26,25.4l0 63.88 -32.31 0 0 -176.6z"/>
  <path id="_10" fill="black" fill-rule="nonzero" d="M2012.56 315.81c-12.5,0 -23.76,-2.88 -33.79,-8.63 -10.03,-5.75 -17.88,-13.69 -23.55,-23.8 -5.67,-10.11 -8.51,-21.5 -8.51,-34.16 0,-12 2.8,-23.14 8.39,-33.42 5.59,-10.27 13.32,-18.45 23.18,-24.54 9.87,-6.08 20.88,-9.13 33.05,-9.13 12.99,0 24.17,2.8 33.54,8.39 9.37,5.59 16.48,13.23 21.34,22.94 4.85,9.7 7.27,20.47 7.27,32.31 0,3.78 -0.25,7.4 -0.74,10.86l-94.47 0c1.65,10.03 5.63,17.63 11.96,22.81 6.33,5.18 13.94,7.77 22.82,7.77 7.4,0 13.77,-1.6 19.11,-4.81 5.34,-3.21 9.58,-7.53 12.7,-12.95l26.14 12.83c-12.83,22.36 -32.31,33.54 -58.45,33.54zm29.84 -82.14c-0.33,-3.94 -1.77,-7.85 -4.32,-11.72 -2.55,-3.86 -6.08,-7.07 -10.6,-9.62 -4.52,-2.55 -9.83,-3.82 -15.91,-3.82 -7.73,0 -14.35,2.26 -19.85,6.78 -5.51,4.52 -9.5,10.65 -11.96,18.38l62.65 0z"/>
  <path id="_11" fill="black" fill-rule="nonzero" d="M2098.39 186.07l30.33 0 0 16.77 1.98 0c3.12,-5.92 7.97,-10.81 14.55,-14.68 6.58,-3.87 13.81,-5.8 21.71,-5.8 5.75,0 11.02,0.9 15.78,2.71l0 32.31c-4.44,-1.65 -8.18,-2.84 -11.22,-3.58 -3.04,-0.74 -6.29,-1.11 -9.74,-1.11 -9.53,0 -17.1,3.45 -22.69,10.36 -5.59,6.91 -8.39,15.62 -8.39,26.14l0 62.65 -32.31 0 0 -125.79z"/>
 </g>
</svg>
